<?xml version="1.0" encoding="UTF-8"?>
<svg width="24px" height="24px" viewBox="0 0 24 24" version="1.1" xmlns="http://www.w3.org/2000/svg" xmlns:xlink="http://www.w3.org/1999/xlink">
    <title>Camera</title>
    <g id="Page-1" stroke="none" stroke-width="1" fill="none" fill-rule="evenodd">
        <g id="Camera">
            <rect id="Rectangle" fill-rule="nonzero" x="0" y="0" width="24" height="24"></rect>
            <path d="M4,9 C4,7.89543 4.89543,7 6,7 L8,7 L8.44721,6.10557 C8.786,5.428 9.47852,5 10.2361,5 L13.7639,5 C14.5215,5 15.214,5.428 15.5528,6.10557 L16,7 L18,7 C19.1046,7 20,7.89543 20,9 L20,17 C20,18.1046 19.1046,19 18,19 L6,19 C4.89543,19 4,18.1046 4,17 L4,9 Z" id="Path" stroke="#0C0310" stroke-width="2" stroke-linecap="round"></path>
            <path d="M15,13 C15,14.6569 13.6569,16 12,16 C10.3431,16 9,14.6569 9,13 C9,11.3431 10.3431,10 12,10 C13.6569,10 15,11.3431 15,13 Z" id="Path" stroke="#0C0310" stroke-width="2" stroke-linecap="round"></path>
        </g>
    </g>
</svg>