<?xml version="1.0" encoding="UTF-8"?>
<svg width="24px" height="24px" viewBox="0 0 24 24" version="1.1" xmlns="http://www.w3.org/2000/svg" xmlns:xlink="http://www.w3.org/1999/xlink">
    <title>File-Png</title>
    <g id="Page-1" stroke="none" stroke-width="1" fill="none" fill-rule="evenodd">
        <g id="File-Png">
            <rect id="Rectangle" fill-rule="nonzero" x="0" y="0" width="24" height="24"></rect>
            <path d="M4,5 C4,3.89543 4.89543,3 6,3 L15.1716,3 C15.702,3 16.2107,3.21071 16.5858,3.58579 L19.4142,6.41421 C19.7893,6.78929 20,7.29799 20,7.82843 L20,19 C20,20.1046 19.1046,21 18,21 L6,21 C4.89543,21 4,20.1046 4,19 L4,5 Z" id="Path" stroke="#0C0310" stroke-width="2" stroke-linecap="round"></path>
            <path d="M15,4 L15,6 C15,7.10457 15.8954,8 17,8 L19,8" id="Path" stroke="#0C0310" stroke-width="2" stroke-linecap="round"></path>
            <path d="M9.56527,14.06 C9.56527,14.308 9.51927,14.518 9.42727,14.69 C9.33527,14.858 9.21127,14.994 9.05527,15.098 C8.89927,15.202 8.71927,15.278 8.51527,15.326 C8.31127,15.374 8.09927,15.398 7.87927,15.398 L7.36927,15.398 L7.36927,17 L6.34327,17 L6.34327,12.752 L7.90327,12.752 C8.13527,12.752 8.35127,12.776 8.55127,12.824 C8.75527,12.868 8.93127,12.942 9.07927,13.046 C9.23127,13.146 9.34927,13.28 9.43327,13.448 C9.52127,13.612 9.56527,13.816 9.56527,14.06 Z M8.53927,14.066 C8.53927,13.966 8.51927,13.884 8.47927,13.82 C8.43927,13.756 8.38527,13.706 8.31727,13.67 C8.24927,13.634 8.17127,13.61 8.08327,13.598 C7.99927,13.586 7.91127,13.58 7.81927,13.58 L7.36927,13.58 L7.36927,14.582 L7.80127,14.582 C7.89727,14.582 7.98927,14.574 8.07727,14.558 C8.16527,14.542 8.24327,14.514 8.31127,14.474 C8.38327,14.434 8.43927,14.382 8.47927,14.318 C8.51927,14.25 8.53927,14.166 8.53927,14.066 Z M12.8812,17 L11.1712,14.222 L11.1532,14.222 L11.1772,17 L10.1812,17 L10.1812,12.752 L11.3512,12.752 L13.0552,15.524 L13.0732,15.524 L13.0492,12.752 L14.0452,12.752 L14.0452,17 L12.8812,17 Z M18.6954,16.742 C18.4874,16.85 18.2434,16.938 17.9634,17.006 C17.6874,17.074 17.3854,17.108 17.0574,17.108 C16.7174,17.108 16.4034,17.054 16.1154,16.946 C15.8314,16.838 15.5854,16.686 15.3774,16.49 C15.1734,16.294 15.0134,16.06 14.8974,15.788 C14.7814,15.512 14.7234,15.206 14.7234,14.87 C14.7234,14.53 14.7814,14.222 14.8974,13.946 C15.0174,13.67 15.1814,13.436 15.3894,13.244 C15.5974,13.048 15.8414,12.898 16.1214,12.794 C16.4014,12.69 16.7034,12.638 17.0274,12.638 C17.3634,12.638 17.6754,12.69 17.9634,12.794 C18.2514,12.894 18.4854,13.03 18.6654,13.202 L18.0174,13.94 C17.9174,13.824 17.7854,13.73 17.6214,13.658 C17.4574,13.582 17.2714,13.544 17.0634,13.544 C16.8834,13.544 16.7174,13.578 16.5654,13.646 C16.4134,13.71 16.2814,13.802 16.1694,13.922 C16.0574,14.038 15.9694,14.178 15.9054,14.342 C15.8454,14.502 15.8154,14.678 15.8154,14.87 C15.8154,15.066 15.8434,15.246 15.8994,15.41 C15.9554,15.574 16.0374,15.716 16.1454,15.836 C16.2574,15.952 16.3934,16.044 16.5534,16.112 C16.7174,16.176 16.9034,16.208 17.1114,16.208 C17.2314,16.208 17.3454,16.2 17.4534,16.184 C17.5614,16.164 17.6614,16.134 17.7534,16.094 L17.7534,15.32 L16.9434,15.32 L16.9434,14.492 L18.6954,14.492 L18.6954,16.742 Z" id="Shape" fill="#0C0310" fill-rule="nonzero"></path>
        </g>
    </g>
</svg>