<?xml version="1.0" encoding="UTF-8"?>
<svg width="24px" height="24px" viewBox="0 0 24 24" version="1.1" xmlns="http://www.w3.org/2000/svg" xmlns:xlink="http://www.w3.org/1999/xlink">
    <title>File-Svg</title>
    <g id="Page-1" stroke="none" stroke-width="1" fill="none" fill-rule="evenodd">
        <g id="File-Svg">
            <rect id="Rectangle" fill-rule="nonzero" x="0" y="0" width="24" height="24"></rect>
            <path d="M4,5 C4,3.89543 4.89543,3 6,3 L15.1716,3 C15.702,3 16.2107,3.21071 16.5858,3.58579 L19.4142,6.41421 C19.7893,6.78929 20,7.29799 20,7.82843 L20,19 C20,20.1046 19.1046,21 18,21 L6,21 C4.89543,21 4,20.1046 4,19 L4,5 Z" id="Path" stroke="#0C0310" stroke-width="2" stroke-linecap="round"></path>
            <path d="M15,4 L15,6 C15,7.10457 15.8954,8 17,8 L19,8" id="Path" stroke="#0C0310" stroke-width="2" stroke-linecap="round"></path>
            <path d="M8.61462,13.856 C8.52662,13.744 8.41062,13.656 8.26662,13.592 C8.12662,13.524 7.99062,13.49 7.85862,13.49 C7.79062,13.49 7.72062,13.496 7.64862,13.508 C7.58062,13.52 7.51862,13.544 7.46262,13.58 C7.40662,13.612 7.35862,13.656 7.31862,13.712 C7.28262,13.764 7.26462,13.832 7.26462,13.916 C7.26462,13.988 7.27862,14.048 7.30662,14.096 C7.33862,14.144 7.38262,14.186 7.43862,14.222 C7.49862,14.258 7.56862,14.292 7.64862,14.324 C7.72862,14.352 7.81862,14.382 7.91862,14.414 C8.06262,14.462 8.21262,14.516 8.36862,14.576 C8.52462,14.632 8.66662,14.708 8.79462,14.804 C8.92262,14.9 9.02862,15.02 9.11262,15.164 C9.19662,15.304 9.23862,15.48 9.23862,15.692 C9.23862,15.936 9.19262,16.148 9.10062,16.328 C9.01262,16.504 8.89262,16.65 8.74062,16.766 C8.58862,16.882 8.41462,16.968 8.21862,17.024 C8.02262,17.08 7.82062,17.108 7.61262,17.108 C7.30862,17.108 7.01462,17.056 6.73062,16.952 C6.44662,16.844 6.21062,16.692 6.02262,16.496 L6.69462,15.812 C6.79862,15.94 6.93462,16.048 7.10262,16.136 C7.27462,16.22 7.44462,16.262 7.61262,16.262 C7.68862,16.262 7.76262,16.254 7.83462,16.238 C7.90662,16.222 7.96862,16.196 8.02062,16.16 C8.07662,16.124 8.12062,16.076 8.15262,16.016 C8.18462,15.956 8.20062,15.884 8.20062,15.8 C8.20062,15.72 8.18062,15.652 8.14062,15.596 C8.10062,15.54 8.04262,15.49 7.96662,15.446 C7.89462,15.398 7.80262,15.356 7.69062,15.32 C7.58262,15.28 7.45862,15.238 7.31862,15.194 C7.18262,15.15 7.04862,15.098 6.91662,15.038 C6.78862,14.978 6.67262,14.902 6.56862,14.81 C6.46862,14.714 6.38662,14.6 6.32262,14.468 C6.26262,14.332 6.23262,14.168 6.23262,13.976 C6.23262,13.74 6.28062,13.538 6.37662,13.37 C6.47262,13.202 6.59862,13.064 6.75462,12.956 C6.91062,12.848 7.08662,12.77 7.28262,12.722 C7.47862,12.67 7.67662,12.644 7.87662,12.644 C8.11662,12.644 8.36062,12.688 8.60862,12.776 C8.86062,12.864 9.08062,12.994 9.26862,13.166 L8.61462,13.856 Z M11.9805,17 L10.9545,17 L9.34652,12.752 L10.4985,12.752 L11.4825,15.764 L11.5065,15.764 L12.4845,12.752 L13.6185,12.752 L11.9805,17 Z M17.6681,16.742 C17.4601,16.85 17.2161,16.938 16.9361,17.006 C16.6601,17.074 16.3581,17.108 16.0301,17.108 C15.6901,17.108 15.3761,17.054 15.0881,16.946 C14.8041,16.838 14.5581,16.686 14.3501,16.49 C14.1461,16.294 13.9861,16.06 13.8701,15.788 C13.7541,15.512 13.6961,15.206 13.6961,14.87 C13.6961,14.53 13.7541,14.222 13.8701,13.946 C13.9901,13.67 14.1541,13.436 14.3621,13.244 C14.5701,13.048 14.8141,12.898 15.0941,12.794 C15.3741,12.69 15.6761,12.638 16.0001,12.638 C16.3361,12.638 16.6481,12.69 16.9361,12.794 C17.2241,12.894 17.4581,13.03 17.6381,13.202 L16.9901,13.94 C16.8901,13.824 16.7581,13.73 16.5941,13.658 C16.4301,13.582 16.2441,13.544 16.0361,13.544 C15.8561,13.544 15.6901,13.578 15.5381,13.646 C15.3861,13.71 15.2541,13.802 15.1421,13.922 C15.0301,14.038 14.9421,14.178 14.8781,14.342 C14.8181,14.502 14.7881,14.678 14.7881,14.87 C14.7881,15.066 14.8161,15.246 14.8721,15.41 C14.9281,15.574 15.0101,15.716 15.1181,15.836 C15.2301,15.952 15.3661,16.044 15.5261,16.112 C15.6901,16.176 15.8761,16.208 16.0841,16.208 C16.2041,16.208 16.3181,16.2 16.4261,16.184 C16.5341,16.164 16.6341,16.134 16.7261,16.094 L16.7261,15.32 L15.9161,15.32 L15.9161,14.492 L17.6681,14.492 L17.6681,16.742 Z" id="Shape" fill="#0C0310" fill-rule="nonzero"></path>
        </g>
    </g>
</svg>