<?xml version="1.0" encoding="UTF-8"?>
<svg width="24px" height="24px" viewBox="0 0 24 24" version="1.1" xmlns="http://www.w3.org/2000/svg" xmlns:xlink="http://www.w3.org/1999/xlink">
    <title>Headphones</title>
    <g id="Page-1" stroke="none" stroke-width="1" fill="none" fill-rule="evenodd">
        <g id="Headphones">
            <rect id="Rectangle" fill-rule="nonzero" x="0" y="0" width="24" height="24"></rect>
            <rect id="Rectangle" stroke="#0C0310" stroke-width="2" stroke-linecap="round" x="15" y="14" width="6" height="7" rx="3"></rect>
            <path d="M3,17 C3,15.3431 4.34315,14 6,14 L6,14 C7.65685,14 9,15.3431 9,17 L9,18 C9,19.6569 7.65685,21 6,21 L6,21 C4.34315,21 3,19.6569 3,18 L3,17 Z" id="Path" stroke="#0C0310" stroke-width="2" stroke-linecap="round"></path>
            <path d="M21,18 L21,11 C21,6.58172 17.4183,3 13,3 L11,3 C6.58172,3 3,6.58172 3,11 L3,18" id="Path" stroke="#0C0310" stroke-width="2" stroke-linecap="round"></path>
        </g>
    </g>
</svg>