<?xml version="1.0" encoding="UTF-8"?>
<svg width="24px" height="24px" viewBox="0 0 24 24" version="1.1" xmlns="http://www.w3.org/2000/svg" xmlns:xlink="http://www.w3.org/1999/xlink">
    <title>Shuffle-Play</title>
    <g id="Page-1" stroke="none" stroke-width="1" fill="none" fill-rule="evenodd">
        <g id="Shuffle-Play">
            <rect id="Rectangle" fill-rule="nonzero" x="0" y="0" width="24" height="24"></rect>
            <path d="M3,6 L5,6 C8.31371,6 11,8.68629 11,12 L11,12 C11,15.3137 8.31371,18 5,18 L3,18" id="Path" stroke="#0C0310" stroke-width="2" stroke-linecap="round"></path>
            <path d="M20,6 L17,6 C13.6863,6 11,8.68629 11,12 L11,12 C11,15.3137 13.6863,18 17,18 L20,18" id="Path" stroke="#0C0310" stroke-width="2" stroke-linecap="round"></path>
            <path d="M18,3 L20.2929,5.29289 C20.6834,5.68342 20.6834,6.31658 20.2929,6.70711 L18,9" id="Path" stroke="#0C0310" stroke-width="2" stroke-linecap="round"></path>
            <path d="M18,15 L20.2929,17.2929 C20.6834,17.6834 20.6834,18.3166 20.2929,18.7071 L18,21" id="Path" stroke="#0C0310" stroke-width="2" stroke-linecap="round"></path>
        </g>
    </g>
</svg>