<?xml version="1.0" encoding="UTF-8"?>
<svg width="24px" height="24px" viewBox="0 0 24 24" version="1.1" xmlns="http://www.w3.org/2000/svg" xmlns:xlink="http://www.w3.org/1999/xlink">
    <title>Star</title>
    <g id="Page-1" stroke="none" stroke-width="1" fill="none" fill-rule="evenodd">
        <g id="Star">
            <rect id="Rectangle" fill-rule="nonzero" x="0" y="0" width="24" height="24"></rect>
            <path d="M11.5516,2.90849 C11.735,2.53687 12.265,2.53687 12.4484,2.90849 L14.8226,7.71919 C14.8954,7.86677 15.0362,7.96905 15.1991,7.99271 L20.508,8.76415 C20.9181,8.82374 21.0818,9.32773 20.7851,9.61699 L16.9435,13.3616 C16.8257,13.4765 16.7719,13.642 16.7997,13.8042 L17.7066,19.0916 C17.7766,19.5001 17.3479,19.8116 16.9811,19.6187 L12.2327,17.1223 C12.087,17.0457 11.913,17.0457 11.7673,17.1223 L7.01888,19.6187 C6.65207,19.8116 6.22335,19.5001 6.29341,19.0916 L7.20028,13.8042 C7.2281,13.642 7.17433,13.4765 7.05648,13.3616 L3.21491,9.61699 C2.91815,9.32773 3.08191,8.82374 3.49202,8.76415 L8.80094,7.99271 C8.9638,7.96905 9.10458,7.86677 9.17741,7.71919 L11.5516,2.90849 Z" id="Path" stroke="#0C0310" stroke-width="2" stroke-linecap="round"></path>
        </g>
    </g>
</svg>