<svg width="24" height="24" viewBox="0 0 24 24" fill="none" xmlns="http://www.w3.org/2000/svg">
<rect width="24" height="24" fill="white"/>
<path d="M17 4L7.20711 4C7.0745 4 6.94732 4.05268 6.85355 4.14645L3.64645 7.35355C3.55268 7.44732 3.5 7.5745 3.5 7.70711L3.5 10.2929C3.5 10.4255 3.55268 10.5527 3.64645 10.6464L6.85355 13.8536C6.94732 13.9473 7.0745 14 7.20711 14L17 14C18.6569 14 20 12.6569 20 11L20 7C20 5.34315 18.6569 4 17 4Z" stroke="#0C0310" stroke-width="2" stroke-linecap="round"/>
<path d="M10 17.3945L14.0203 19.7156C14.9274 20.2394 16.0849 19.9745 16.674 19.1084L17.8397 17.3945" stroke="#0C0310" stroke-width="2" stroke-linecap="round"/>
<path d="M8 9H8.01" stroke="#0C0310" stroke-width="2" stroke-linecap="round"/>
</svg>
