<?xml version="1.0" encoding="UTF-8"?>
<svg width="24px" height="24px" viewBox="0 0 24 24" version="1.1" xmlns="http://www.w3.org/2000/svg" xmlns:xlink="http://www.w3.org/1999/xlink">
    <title>Text-Bold</title>
    <g id="Page-1" stroke="none" stroke-width="1" fill="none" fill-rule="evenodd">
        <g id="Text-Bold">
            <rect id="Rectangle" fill-rule="nonzero" x="0" y="0" width="24" height="24"></rect>
            <path d="M6,12 L13,12 C15.2091,12 17,10.2091 17,8 L17,8 C17,5.79086 15.2091,4 13,4 L8,4 C6.89543,4 6,4.89543 6,6 L6,12 Z M6,12 L6,19 C6,20.1046 6.89543,21 8,21 L9,21 L13,21 L13.5,21 C15.9853,21 18,18.9853 18,16.5 L18,16.5 L18,16.5 C18,14.0147 15.9853,12 13.5,12 L6,12 Z" id="Shape" stroke="#0C0310" stroke-width="2" stroke-linecap="round"></path>
        </g>
    </g>
</svg>