<?xml version="1.0" encoding="UTF-8"?>
<svg width="24px" height="24px" viewBox="0 0 24 24" version="1.1" xmlns="http://www.w3.org/2000/svg" xmlns:xlink="http://www.w3.org/1999/xlink">
    <title>Upload-1</title>
    <g id="Page-1" stroke="none" stroke-width="1" fill="none" fill-rule="evenodd">
        <g id="Upload-1">
            <rect id="Rectangle" fill-rule="nonzero" x="0" y="0" width="24" height="24"></rect>
            <line x1="12" y1="11" x2="12" y2="20" id="Path" stroke="#0C0310" stroke-width="2" stroke-linecap="round"></line>
            <path d="M15,13 L12.7071,10.7071 C12.3166,10.3166 11.6834,10.3166 11.2929,10.7071 L9,13" id="Path" stroke="#0C0310" stroke-width="2" stroke-linecap="round"></path>
            <path d="M8,16 L6,16 C4.34315,16 3,14.6569 3,13 C3,11.3431 4.34315,10 6,10 C6,6.68629 8.68629,4 12,4 C15.3137,4 18,6.68629 18,10 C19.6569,10 21,11.3431 21,13 C21,14.6569 19.6569,16 18,16 L16,16" id="Path" stroke="#0C0310" stroke-width="2" stroke-linecap="round"></path>
        </g>
    </g>
</svg>